<?xml version="1.0" encoding="utf-8"?>
<!-- Generator: Adobe Illustrator 15.0.0, SVG Export Plug-In  -->
<!DOCTYPE svg PUBLIC "-//W3C//DTD SVG 1.1//EN" "http://www.w3.org/Graphics/SVG/1.1/DTD/svg11.dtd" [
	<!ENTITY ns_flows "http://ns.adobe.com/Flows/1.0/">
]>
<svg version="1.1"
	 xmlns="http://www.w3.org/2000/svg" xmlns:xlink="http://www.w3.org/1999/xlink" xmlns:a="http://ns.adobe.com/AdobeSVGViewerExtensions/3.0/"
	 x="0px" y="0px" width="512px" height="512px" viewBox="-26.567 0 512 512" enable-background="new -26.567 0 512 512"
	 xml:space="preserve">
<defs>
</defs>
<path fill="#FCE9CB" d="M289.455,9.979V50.1c0,15.282-5.726,29.228-15.153,39.812c-10.963,12.32-26.943,20.081-44.739,20.081
	c-17.796,0-33.777-7.761-44.74-20.081C175.396,79.327,169.67,65.382,169.67,50.1V9.979H289.455z"/>
<path fill="#FAD294" d="M29.925,429.204h39.732v72.82H29.925V429.204z"/>
<path fill="#FCE9CB" d="M428.941,252.311v176.894h-39.902V321.301c0-6.515-5.286-11.801-11.801-11.801H201.333
	c-6.514,0-11.801,5.286-11.801,11.801v107.903H149.8v-59.683c0-11.063-4.489-21.088-11.741-28.34
	c-7.252-7.242-17.268-11.731-28.33-11.731c-22.125,0-40.071,17.936-40.071,40.071v59.683H29.925V252.311
	c4.988,2.544,10.634,3.99,16.629,3.99c20.2,0,36.57-16.38,36.57-36.58c0,20.2,16.379,36.58,36.58,36.58s36.58-16.38,36.58-36.58
	c0,20.2,16.37,36.58,36.57,36.58s36.58-16.38,36.58-36.58c0,20.2,16.379,36.58,36.58,36.58s36.57-16.38,36.57-36.58
	c0,20.2,16.379,36.58,36.58,36.58c20.199,0,36.579-16.38,36.579-36.58c0,20.2,16.37,36.58,36.569,36.58
	C418.308,256.301,423.953,254.854,428.941,252.311L428.941,252.311z"/>
<path fill="#F7B84F" d="M149.8,369.521v132.503H69.657V369.521c0-22.136,17.946-40.071,40.071-40.071
	c11.063,0,21.078,4.489,28.33,11.731C145.311,348.434,149.8,358.459,149.8,369.521z"/>
<path fill="#FAD294" d="M149.8,429.204h39.732v72.82H149.8V429.204z"/>
<path fill="#F7B84F" d="M189.532,429.204h39.901v72.82h-39.901V429.204z"/>
<path fill="#FAD294" d="M229.433,429.204h39.902v72.82h-39.902V429.204z"/>
<path fill="#F7B84F" d="M269.335,429.204h39.901v72.82h-39.901V429.204z"/>
<path fill="#FAD294" d="M309.236,429.204h39.901v72.82h-39.901V429.204z"/>
<path fill="#F7B84F" d="M349.138,429.204h39.901v72.82h-39.901V429.204z"/>
<path fill="#FAD294" d="M389.039,429.204h39.902v72.82h-39.902V429.204z"/>
<path fill="#91DEF5" d="M389.039,321.301v28.101H189.532v-28.101c0-6.515,5.287-11.801,11.801-11.801h175.906
	C383.753,309.5,389.039,314.786,389.039,321.301z"/>
<path fill="#DF2800" d="M189.532,349.401h199.507v79.803H189.532V349.401z"/>
<path fill="#FF7373" d="M448.892,209.746H9.975L69.827,89.911h114.997c10.963,12.32,26.943,20.081,44.74,20.081
	c17.795,0,33.776-7.761,44.739-20.081h114.737L448.892,209.746z"/>
<path fill="#35FF1F" d="M83.124,209.746v9.976c0,20.2-16.37,36.58-36.57,36.58c-5.995,0-11.641-1.446-16.629-3.99
	c-11.841-6.055-19.951-18.375-19.951-32.589v-9.976H83.124z"/>
<path fill="#FFFFFF" d="M156.284,209.746v9.976c0,20.2-16.38,36.58-36.58,36.58s-36.58-16.38-36.58-36.58v-9.976H156.284z"/>
<path fill="#1FFF2A" d="M229.433,209.746v9.976c0,20.2-16.379,36.58-36.58,36.58s-36.57-16.38-36.57-36.58v-9.976H229.433z"/>
<path fill="#FFFFFF" d="M448.892,209.746v9.976c0,14.215-8.109,26.534-19.95,32.589c-4.988,2.544-10.634,3.99-16.63,3.99
	c-20.2,0-36.569-16.38-36.569-36.58v-9.976H448.892z"/>
<path fill="#00FF27" d="M375.742,209.746v9.976c0,20.2-16.38,36.58-36.579,36.58c-20.201,0-36.58-16.38-36.58-36.58v-9.976H375.742z
	"/>
<path d="M458.803,208.645c-0.011-0.091-0.029-0.181-0.041-0.271c-0.038-0.276-0.084-0.55-0.144-0.818
	c-0.023-0.101-0.051-0.2-0.077-0.299c-0.067-0.258-0.141-0.512-0.227-0.761c-0.035-0.101-0.071-0.201-0.109-0.3
	c-0.095-0.249-0.199-0.49-0.313-0.728c-0.028-0.059-0.048-0.121-0.077-0.179L397.964,85.454c-1.689-3.381-5.145-5.519-8.925-5.519
	h-96.317c1.641-3.459,2.994-7.076,4.053-10.818h7.403c19.056,0,34.559-15.503,34.559-34.559C338.736,15.503,323.233,0,304.177,0
	H169.666c-5.509,0-9.975,4.466-9.975,9.976v40.123c0,10.669,2.413,20.783,6.707,29.837H69.827c-3.779,0-7.235,2.137-8.924,5.519
	L1.05,205.289c-0.029,0.058-0.049,0.12-0.077,0.179c-0.114,0.238-0.217,0.479-0.312,0.728c-0.038,0.1-0.075,0.2-0.11,0.3
	c-0.086,0.25-0.161,0.504-0.227,0.761c-0.026,0.1-0.054,0.198-0.077,0.299c-0.06,0.268-0.106,0.542-0.144,0.818
	c-0.013,0.091-0.031,0.18-0.041,0.271C0.024,209.006,0,209.374,0,209.746v9.976c0,15.784,7.903,29.749,19.951,38.171v244.132
	c0,5.51,4.466,9.976,9.976,9.976h399.016c5.509,0,9.975-4.466,9.975-9.976V257.893c12.049-8.423,19.951-22.388,19.951-38.171v-9.976
	C458.867,209.374,458.842,209.006,458.803,208.645L458.803,208.645z M318.784,34.56c0,8.055-6.553,14.608-14.607,14.608h-4.75
	V19.951h4.75C312.231,19.951,318.784,26.503,318.784,34.56z M179.641,19.951h99.836v30.148c0,27.525-22.393,49.917-49.918,49.917
	c-27.525,0-49.918-22.393-49.918-49.917V19.951z M75.995,99.887h104.609c10.34,10.169,23.818,17.149,38.834,19.338v20.693h-49.857
	c-5.509,0-9.975,4.466-9.975,9.975c0,5.51,4.466,9.976,9.975,9.976h119.706c5.509,0,9.975-4.466,9.975-9.976
	c0-5.509-4.466-9.975-9.975-9.975h-49.897v-20.656c15.132-2.141,28.718-9.142,39.124-19.375H382.87l49.889,99.883H26.106
	L75.995,99.887z M19.95,219.721h53.199c0,14.669-11.929,26.604-26.594,26.604C31.883,246.325,19.95,234.391,19.95,219.721z
	 M365.763,219.721c0,14.667-11.933,26.601-26.602,26.601c-14.668,0-26.602-11.933-26.602-26.601H365.763z M292.61,219.721
	c0,14.667-11.934,26.601-26.602,26.601s-26.602-11.933-26.602-26.601H292.61z M219.458,219.721
	c0,14.667-11.933,26.601-26.601,26.601c-14.669,0-26.602-11.933-26.602-26.601H219.458z M146.304,219.721
	c0,14.667-11.933,26.601-26.602,26.601c-14.668,0-26.601-11.933-26.601-26.601H146.304z M39.9,439.18h19.784v52.869H39.9V439.18z
	 M199.507,439.18h19.951v52.869h-19.951V439.18z M239.409,439.18h19.95v52.869h-19.95V439.18z M279.31,439.18h19.951v52.869H279.31
	V439.18z M319.212,439.18h19.951v52.869h-19.951V439.18z M359.113,439.18h19.95v52.869h-19.95V439.18z M379.063,339.426h-79.803
	c-5.51,0-9.975,4.466-9.975,9.976c0,5.509,4.465,9.976,9.975,9.976h79.803v59.852H199.507v-59.852h19.951
	c5.51,0,9.976-4.467,9.976-9.976c0-5.51-4.466-9.976-9.976-9.976h-19.951v-18.122c0-1.009,0.82-1.829,1.829-1.829h175.899
	c1.009,0,1.828,0.82,1.828,1.829L379.063,339.426L379.063,339.426z M179.556,492.049h-19.784V439.18h19.784V492.049z
	 M139.82,492.049H79.636v-61.074c0.104-0.575,0.167-1.165,0.167-1.771s-0.063-1.195-0.167-1.771v-57.915
	c0-16.593,13.5-30.093,30.093-30.093c16.593,0,30.093,13.5,30.093,30.093L139.82,492.049L139.82,492.049z M399.015,492.049V439.18
	h19.951v52.869H399.015z M418.966,419.229h-19.951v-97.925c0-12.01-9.77-21.78-21.779-21.78h-175.9
	c-12.009,0-21.779,9.771-21.779,21.78v97.925h-19.784v-49.71c0-27.594-22.449-50.044-50.043-50.044
	c-27.595,0-50.044,22.449-50.044,50.044v49.71H39.9V265.793c2.175,0.313,4.395,0.483,6.654,0.483
	c14.825,0,28.043-6.978,36.573-17.811c8.531,10.832,21.75,17.806,36.577,17.806c14.827,0,28.045-6.975,36.577-17.806
	c8.531,10.832,21.75,17.806,36.577,17.806c14.826,0,28.045-6.975,36.577-17.806c8.531,10.832,21.75,17.806,36.577,17.806
	s28.046-6.975,36.576-17.806c8.531,10.832,21.751,17.806,36.578,17.806c14.826,0,28.045-6.975,36.576-17.806
	c8.53,10.833,21.748,17.811,36.572,17.811c2.26,0,4.479-0.171,6.654-0.483v153.436H418.966z M412.312,246.325
	c-14.664,0-26.594-11.935-26.594-26.604h53.198C438.916,234.391,426.981,246.325,412.312,246.325z"/>
<circle cx="259.359" cy="349.237" r="9.974"/>
</svg>
