<svg id="Capa_1" enable-background="new 0 0 512 512" height="512" viewBox="0 0 512 512" width="512" xmlns="http://www.w3.org/2000/svg"><path d="m256 179.847c-59.265 0-109.546 13.396-128.258 32.065v16.032h256.516v-16.032c-18.712-18.669-68.993-32.065-128.258-32.065z" fill="#f9eac7"/><path d="m127.742 211.912v16.032h88.177c8.016-32.065 22.084-47.645 22.084-47.645-51.274 2.401-93.479 14.87-110.261 31.613z" fill="#f4dbb3"/><path d="m55.597 404.299 93.919 33.543c12.114 4.327 24.882 6.538 37.745 6.538h137.477c12.864 0 25.631-2.211 37.745-6.538l93.919-33.543v-16.032h-400.805z" fill="#95d6a4"/><path d="m407.519 211.912h-303.038c-4.759 0-8.48 4.062-7.981 8.795 2.394 22.681 10.777 85.982 34.722 151.528h249.556c23.945-65.546 32.328-128.847 34.722-151.528.5-4.733-3.222-8.795-7.981-8.795z" fill="#b3e59f"/><path d="m219.833 132.04v.008s0-.004 0-.008z" fill="#f9eac7"/><path d="m488.468 404.299h-464.936c-8.854 0-16.032-7.178-16.032-16.032 0-8.854 7.178-16.032 16.032-16.032h464.935c8.854 0 16.032 7.178 16.032 16.032.001 8.854-7.177 16.032-16.031 16.032z" fill="#b3e59f"/><path d="m380.778 372.234c2.949-8.075 5.658-16.113 8.153-24.048h-2.613-138.837c-14.207 0-26.567-9.205-30.756-22.904-14.608-47.773-21.229-91.171-23.922-113.37h-88.323c-4.758 0-8.48 4.062-7.981 8.795 2.394 22.681 10.778 85.982 34.722 151.528h249.557z" fill="#95d6a4"/><path d="m23.532 404.299h120.242v-32.065h-120.242c-8.854 0-16.032 7.178-16.032 16.032 0 8.855 7.178 16.033 16.032 16.033z" fill="#95d6a4"/><path d="m187.262 444.379h44.69v-40.081h-176.355l93.919 33.543c12.114 4.327 24.882 6.538 37.746 6.538z" fill="#78c2a4"/><path d="m488.468 364.734h-97.079c21.345-62.149 29.15-120.316 31.57-143.241.459-4.346-.953-8.699-3.873-11.943-2.939-3.266-7.155-5.139-11.567-5.139h-20.321c-22.254-19.556-73.071-32.064-131.199-32.064s-108.945 12.509-131.199 32.064h-20.32c-4.412 0-8.628 1.873-11.567 5.139-2.92 3.244-4.332 7.597-3.873 11.943.078.741.162 1.52.252 2.333-5.943-2.225-11.906-3.382-17.664-3.382-30.656 0-55.597 24.941-55.597 55.597 0 20.178 10.34 39.035 29.115 53.098 15.261 11.431 34.623 18.532 50.53 18.532 6.639 0 12.666-1.688 17.867-4.928 2.172 7.239 4.523 14.587 7.066 21.992h-97.077c-12.975-.001-23.532 10.555-23.532 23.531s10.557 23.532 23.532 23.532h30.766l92.696 33.106c12.959 4.628 26.508 6.975 40.268 6.975h137.477c13.76 0 27.309-2.347 40.268-6.975l92.696-33.106h30.766c12.976 0 23.532-10.556 23.532-23.532s-10.558-23.532-23.533-23.532zm-232.468-177.387c40.153 0 78.028 6.608 102.34 17.064h-204.68c24.312-10.456 62.187-17.064 102.34-17.064zm-160.323 145.323c-22.791 0-64.645-21.5-64.645-56.629 0-22.385 18.211-40.597 40.597-40.597 6.28 0 13.106 2.065 19.881 5.982 2.978 21.211 8.326 51.777 17.589 85.781-3.564 3.717-7.882 5.463-13.422 5.463zm8.281-112.751c-.011-.102-.005-.212.105-.334.156-.174.353-.174.417-.174h303.04c.065 0 .262 0 .417.174.11.122.116.232.105.334-2.428 23.002-10.407 82.316-32.542 144.815h-239c-22.135-62.499-30.114-121.812-32.542-144.815zm384.51 176.88h-96.194c-4.142 0-7.5 3.358-7.5 7.5s3.358 7.5 7.5 7.5h20.831l-53.143 18.98c-11.336 4.048-23.187 6.101-35.223 6.101h-137.477c-12.037 0-23.887-2.053-35.223-6.101l-53.143-18.98h261.314c4.142 0 7.5-3.358 7.5-7.5s-3.358-7.5-7.5-7.5h-336.678c-4.705 0-8.532-3.828-8.532-8.532s3.828-8.532 8.532-8.532h464.936c4.705 0 8.532 3.828 8.532 8.532s-3.828 8.532-8.532 8.532z"/><path d="m249.292 144.429c-1.853 3.705-.351 8.209 3.354 10.062 1.077.539 2.221.794 3.348.794 2.751 0 5.4-1.52 6.714-4.148 9.08-18.159 2.995-32.59-1.895-44.186-5.209-12.355-8.974-21.282 1.187-34.829 2.485-3.314 1.813-8.015-1.5-10.5-3.313-2.486-8.015-1.813-10.5 1.5-15.329 20.438-8.498 36.64-3.008 49.657 4.633 10.987 8.292 19.666 2.3 31.65z"/><path d="m276.49 100.214.046.109c1.417 3.36 3.024 7.167 4.43 11.427 1.041 3.153 3.972 5.151 7.121 5.151.779 0 1.572-.123 2.352-.38 3.934-1.298 6.07-5.539 4.771-9.473-1.595-4.833-3.402-9.115-4.851-12.549l-.043-.102c-.739-1.757-2.47-5.871-2.746-7.075-.928-4.037-4.953-6.56-8.988-5.632-4.037.927-6.558 4.95-5.632 8.987.525 2.287 1.855 5.532 3.54 9.537z"/><path d="m217.444 125.226.075.178c.752 1.79 2.473 5.885 2.853 7.348.314 3.807 3.479 6.822 7.375 6.873.034 0 .067.001.101.001 4.096 0 7.443-3.294 7.498-7.402.034-2.567-1.018-5.541-3.998-12.631l-.079-.188c-2.389-5.662-5.361-12.708-6.851-21.04-.729-4.078-4.629-6.791-8.702-6.064-4.078.729-6.792 4.625-6.063 8.703 1.783 9.981 5.258 18.218 7.791 24.222z"/></svg>