<svg height="512" viewBox="0 0 60 60" width="512" xmlns="http://www.w3.org/2000/svg"><g id="016---Healthy-Meal" fill="none"><g id="Icons" transform="translate(1)"><path id="Shape" d="m35 54h-27c-3.3137085 0-6-2.6862915-6-6 0-.1-1.68 0 54 0 0 3.3137085-2.6862915 6-6 6z" fill="#fec108"/><path id="Shape" d="m51.2 24c-25.46 2.29-21.6 2.06-23.7 1.86l-20.7-1.86c2.71557573-10.0253763 11.8133489-16.98668145 22.2-16.98668145s19.4844243 6.96130515 22.2 16.98668145z" fill="#545c60"/><path id="Shape" d="m48.2 24-20.7 1.86-20.7-1.86c2.56611225-9.4947751 10.8856033-16.30711203 20.7-16.95 9.8143967.64288797 18.1338877 7.4552249 20.7 16.95z" fill="#7f8e94"/><path id="Shape" d="m43 52v4c0 1.6568542-1.3431458 3-3 3h-22c-1.6568542 0-3-1.3431458-3-3v-4z" fill="#f57c00"/><path id="Shape" d="m40 52v4c0 1.6568542-1.3431458 3-3 3h-19c-1.6568542 0-3-1.3431458-3-3v-4z" fill="#ff9801"/><path id="Shape" d="m53 49c0 2.7614237-2.2385763 5-5 5h-41c-2.76142375 0-5-2.2385763-5-5 0-.5522847.44771525-1 1-1h49c.5522847 0 1 .4477153 1 1z" fill="#ffdc00"/><path id="Shape" d="m58 26.5c.0026715.6638566-.2598627 1.3012947-.729284 1.770716s-1.1068594.7319555-1.770716.729284h-53c-1.38071187 0-2.5-1.1192881-2.5-2.5s1.11928813-2.5 2.5-2.5h53c1.3807119 0 2.5 1.1192881 2.5 2.5z" fill="#707070"/><path id="Shape" d="m55 26.5c.0026715.6638566-.2598627 1.3012947-.729284 1.770716s-1.1068594.7319555-1.770716.729284h-50c-1.38071187 0-2.5-1.1192881-2.5-2.5s1.11928813-2.5 2.5-2.5h50c1.3807119 0 2.5 1.1192881 2.5 2.5z" fill="#9e9e9e"/><path id="Shape" d="m32 4c-.0009336 1.45563844-1.0466857 2.70056541-2.4803179 2.95272155-1.4336323.25215615-2.8414129-.56122824-3.3389785-1.92918754-.4975655-1.36795931.0586764-2.89571434 1.3192964-3.62353401.9285009-.53607053 2.0725043-.5358873 3.0008334.00048064.9283291.53636793 1.4998543 1.52737896 1.4991666 2.59951936z" fill="#707070"/><path id="Shape" d="m27.5 6.6c-.9300833-.53539277-1.503337-1.52682697-1.503337-2.6s.5732537-2.06460723 1.503337-2.6c.9300833.53539277 1.503337 1.52682697 1.503337 2.6s-.5732537 2.06460723-1.503337 2.6z" fill="#9e9e9e"/><path id="Shape" d="m39.07 41.69c-1.354775 1.9915599-3.9053655 2.7836945-6.15 1.91.250108-1.8759876-.2453525-3.775253-1.38-5.29.1389435-.2808593.3029415-.5486111.49-.8 1.33-1.73 5.57-3 7.69-3.51.35 2 .61 6-.65 7.69z" fill="#90ac00"/><path id="Shape" d="m36.07 41.69c-.7129069.9442154-1.7019624 1.6431946-2.83 2-.1106079-.0329168-.2177733-.0764527-.32-.13.250108-1.8759876-.2453525-3.775253-1.38-5.29.2067291-.4436236.4912177-.8466492.84-1.19 1.3182022-1.0487056 2.8304355-1.8269111 4.45-2.29.25 1.98.4 5.32-.76 6.9z" fill="#a4c400"/><path id="Shape" d="m44 40.52s-1.41 5.48-3.75 6.74c-.8687381.4831577-1.8459465.7377825-2.84.74h-9.72c2.6184867.1054032 4.8858076-1.8020943 5.23-4.4 2.54 1.27 6.31-.64 6.85-3.61 1.4202134.082445 2.8333485.2595045 4.23.53z" fill="#007900"/><path id="Shape" d="m41 40.52s-1.41 5.48-3.75 6.74c-.8687381.4831577-1.8459465.7377825-2.84.74h-6.72c2.5282633.1274295 4.752859-1.6548239 5.18-4.15l.37-.11c2.7292379.8129164 5.6046458-.7206345 6.45-3.44.79.11 1.31.22 1.31.22z" fill="#008a00"/><path id="Shape" d="m27.69 48h-8.38c-1.7392217-.0491194-3.357214-.9024441-4.38-2.31-1.6-2.15-.65-7.69-.65-7.69 1.9987812.4478276 3.9409509 1.118698 5.79 2 .0330472 1.5773983.4703264 3.1199266 1.27 4.48 1.4395453 2.1129995 3.7952353 3.4188308 6.35 3.52z" fill="#008a00"/><path id="Shape" d="m26.15 47.81c-1.9449096-.4808786-3.6520847-1.645023-4.81-3.28-1.79-2.53-1.44-8.53-.94-11.53 3 .68 9.28 2.7 11.11 5.26v.05c3.57 4.97.24 10.93-5.36 9.5z" fill="#549414"/><path id="Shape" d="m26.15 47.81c-1.9449096-.4808786-3.6520847-1.645023-4.81-3.28-1.72-2.42-1.42-7.77-1.05-10.72 2.78.88 6.78 2.44 8.22 4.45v.05c2.8 3.89 1.41 8.61-2.36 9.5z" fill="#60a917"/></g><g id="Layer_2" fill="#000"><path id="Shape" d="m2 48c0 3.8659932 3.13400675 7 7 7h6v1c0 2.209139 1.790861 4 4 4h22c2.209139 0 4-1.790861 4-4v-1h6c3.8659932 0 7-3.1340068 7-7 0-.5522847-.4477153-1-1-1h-13.94c1.3645137-1.8724418 2.3620894-3.9863523 2.94-6.23.0685599-.2656955.0249286-.5478903-.1206723-.7804735-.1456008-.2325831-.3803775-.3951179-.6493277-.4495265-.07 0-1.52-.3-3.28-.47.1391741-1.7487921.0686733-3.5079537-.21-5.24-.0394197-.2821975-.1973502-.5341776-.4341383-.6926729s-.529944-.208452-.8058617-.1373271c-.64.15-6.13 1.44-8.09 3.68-3.13-2.82-9.94-4.48-10.78-4.67-.2701049-.0647969-.5549914-.0143292-.7864001.139311s-.3884874.3966084-.4335999.670689c-.2774326 1.8637546-.4144848 3.745715-.41 5.63-1.4621941-.5936325-2.9662981-1.0782883-4.5-1.45-.2686691-.0616498-.5508709-.0096635-.7799352.143677-.2290643.1533406-.3846735.3944344-.4300648.666323-.1.61-1 6 .84 8.46.1904793.2503283.3976155.4875326.62.71h-12.75c-.26871836-.0000537-.52615081.1080441-.71427286.2999286s-.29110151.4514068-.28572714.7200714zm41.72-6.69c-.63 1.93-1.76 4.41-3 5.08-.7187833.3996929-1.5275623.6096312-2.35.61h-5c.5509607-.6128333.9726979-1.3304668 1.24-2.11 2.9239633.4752779 5.7864945-1.1408682 6.89-3.89.84.11 1.63.22 2.22.31zm-3.84-6.07c.22 2 .21 4.75-.61 5.85-.966709 1.3635019-2.6159407 2.0703155-4.27 1.83.0404279-1.6376918-.4011928-3.2511721-1.27-4.64.96-1.45 4.46-2.58 6.15-3.04zm-17.64-1c2.83.78 8 2.52 9.45 4.6s1.89 4.71.38 6.61l-3.29-4.08c-.2250773-.2786672-.5817245-.4160889-.935596-.3604999-.3538715.0555891-.6512059.2957438-.78.6300001-.1287942.3342562-.0694813.7118326.155596.9904998l3.25 4c-2.11.88-5.32.08-7.32-2.7-1.46-2.02-1.23-6.93-.91-9.69zm-5.51 10.85c-.82-1.1-.83-3.82-.61-5.84 1.3726745.3627573 2.7110825.8445842 4 1.44.32 2.86 1.07 4.6 3.21 6.31h-3c-1.4327541-.0383026-2.7649617-.7451128-3.6-1.91zm39.17 3.91c-.4752686 2.3283313-2.5236569 4.000485-4.9 4h-10c-.5522847 0-1 .4477153-1 1s.4477153 1 1 1h2v1c0 1.1045695-.8954305 2-2 2h-22c-1.1045695 0-2-.8954305-2-2v-1h19c.5522847 0 1-.4477153 1-1s-.4477153-1-1-1h-27c-2.37634309.000485-4.42473142-1.6716687-4.9-4z"/><path id="Shape" d="m56.5 23h-3.57c-2.7281832-8.9223906-10.380137-15.45502186-19.62-16.75 1.1310953-1.66703214.8459612-3.91510205-.6654993-5.24696537-1.5114606-1.33186332-3.7775408-1.33186332-5.2890014 0-1.5114605 1.33186332-1.7965946 3.57993323-.6654993 5.24696537-9.239863 1.29497814-16.8918168 7.8276094-19.62 16.75h-3.57c-1.93299662 0-3.5 1.5670034-3.5 3.5s1.56700338 3.5 3.5 3.5h53c1.9329966 0 3.5-1.5670034 3.5-3.5s-1.5670034-3.5-3.5-3.5zm-28.5-19c0-1.1045695.8954305-2 2-2s2 .8954305 2 2-.8954305 2-2 2-2-.8954305-2-2zm2 4c9.4466587.00715187 17.8342468 6.0442835 20.84 15h-41.68c3.0057532-8.9557165 11.3933413-14.99284813 20.84-15zm26.5 20h-53c-.82842712 0-1.5-.6715729-1.5-1.5s.67157288-1.5 1.5-1.5h53c.8284271 0 1.5.6715729 1.5 1.5s-.6715729 1.5-1.5 1.5z"/><path id="Shape" d="m24.74 10.71c-3.5641995.9701749-6.7900872 2.9084765-9.32 5.6-.1893127.1877666-.2957983.4433625-.2957983.71s.1064856.5222334.2957983.71c.3900375.3877236 1.0199625.3877236 1.41 0 2.2796044-2.4243004 5.1821517-4.1748235 8.39-5.06.3772763-.0610307.6867741-.3317592.7974555-.6975621.1106815-.365803.0031883-.762701-.2769682-1.0226519-.2801564-.259951-.6839765-.3374893-1.0404873-.199786z"/><path id="Shape" d="m30 10h-1c-.2796775-.00089652-.5469501.1153694-.7369662.3205868-.1900162.2052175-.2854096.4806308-.2630338.7594132.0322388.5486261.5011631.968425 1.05.94l.95-.02c.5522847 0 1-.4477153 1-1s-.4477153-1-1-1z"/></g></g></svg>